<svg width="32" height="32" viewBox="0 0 32 32" fill="none" xmlns="http://www.w3.org/2000/svg">
<path d="M10.8267 12.3867L16 17.56L21.1734 12.3867C21.2968 12.2632 21.4434 12.1653 21.6047 12.0985C21.7659 12.0317 21.9388 11.9973 22.1134 11.9973C22.288 11.9973 22.4608 12.0317 22.6221 12.0985C22.7834 12.1653 22.9299 12.2632 23.0534 12.3867C23.1768 12.5101 23.2747 12.6567 23.3416 12.818C23.4084 12.9792 23.4427 13.1521 23.4427 13.3267C23.4427 13.5012 23.4084 13.6741 23.3416 13.8354C23.2747 13.9967 23.1768 14.1432 23.0534 14.2667L16.9334 20.3867C16.81 20.5103 16.6635 20.6083 16.5022 20.6753C16.3409 20.7422 16.168 20.7766 15.9934 20.7766C15.8188 20.7766 15.6458 20.7422 15.4845 20.6753C15.3233 20.6083 15.1767 20.5103 15.0534 20.3867L8.93338 14.2667C8.80978 14.1433 8.71171 13.9968 8.64481 13.8355C8.5779 13.6742 8.54346 13.5013 8.54346 13.3267C8.54346 13.1521 8.5779 12.9791 8.64481 12.8178C8.71171 12.6565 8.80978 12.51 8.93338 12.3867C9.45338 11.88 10.3067 11.8667 10.8267 12.3867Z" fill="#B7B7B7"/>
</svg>
