<svg width="30" height="30" viewBox="0 0 30 30" fill="none" xmlns="http://www.w3.org/2000/svg">
<path fill-rule="evenodd" clip-rule="evenodd" d="M0.87085 15C0.87085 11.2527 2.35944 7.65893 5.00916 5.00922C7.65887 2.3595 11.2527 0.870911 14.9999 0.870911C18.7472 0.870911 22.341 2.3595 24.9907 5.00922C27.6404 7.65893 29.129 11.2527 29.129 15C29.129 18.7472 27.6404 22.341 24.9907 24.9907C22.341 27.6405 18.7472 29.129 14.9999 29.129C11.2527 29.129 7.65887 27.6405 5.00916 24.9907C2.35944 22.341 0.87085 18.7472 0.87085 15ZM14.9999 2.89758C11.7902 2.89758 8.71187 4.17265 6.44223 6.44229C4.17259 8.71193 2.89752 11.7902 2.89752 15C2.89752 18.2097 4.17259 21.288 6.44223 23.5577C8.71187 25.8273 11.7902 27.1024 14.9999 27.1024C18.2097 27.1024 21.288 25.8273 23.5576 23.5577C25.8272 21.288 27.1023 18.2097 27.1023 15C27.1023 11.7902 25.8272 8.71193 23.5576 6.44229C21.288 4.17265 18.2097 2.89758 14.9999 2.89758ZM20.0218 9.98024C20.2218 10.1803 20.3341 10.4515 20.3341 10.7344C20.3341 11.0172 20.2218 11.2885 20.0218 11.4885L16.5082 15L20.0218 18.5114C20.2221 18.7117 20.3346 18.9834 20.3346 19.2666C20.3346 19.5499 20.2221 19.8216 20.0218 20.0218C19.8215 20.2221 19.5498 20.3347 19.2666 20.3347C18.9833 20.3347 18.7117 20.2221 18.5114 20.0218L14.9999 16.5082L11.4885 20.0218C11.3893 20.121 11.2715 20.1997 11.142 20.2534C11.0124 20.307 10.8735 20.3347 10.7333 20.3347C10.593 20.3347 10.4541 20.307 10.3245 20.2534C10.195 20.1997 10.0772 20.121 9.97805 20.0218C9.87888 19.9227 9.80021 19.8049 9.74653 19.6754C9.69286 19.5458 9.66524 19.4069 9.66524 19.2666C9.66524 19.1264 9.69286 18.9875 9.74653 18.8579C9.80021 18.7284 9.87888 18.6106 9.97805 18.5114L13.4917 15L9.97805 11.4885C9.77776 11.2882 9.66524 11.0166 9.66524 10.7333C9.66524 10.4501 9.77776 10.1784 9.97805 9.97811C10.1783 9.77782 10.45 9.6653 10.7333 9.6653C11.0165 9.6653 11.2882 9.77782 11.4885 9.97811L14.9999 13.4917L18.5114 9.97811C18.6105 9.87878 18.7282 9.79996 18.8578 9.74619C18.9874 9.69242 19.1263 9.66474 19.2666 9.66474C19.4069 9.66474 19.5458 9.69242 19.6754 9.74619C19.805 9.79996 19.9227 9.88091 20.0218 9.98024Z" fill="black"/>
</svg>
