<svg width="16" height="16" viewBox="0 0 16 16" fill="none" xmlns="http://www.w3.org/2000/svg">
<path fill-rule="evenodd" clip-rule="evenodd" d="M14 6.49799V11.5C14 11.8978 13.842 12.2794 13.5607 12.5607C13.2794 12.842 12.8978 13 12.5 13H3.5C3.10218 13 2.72064 12.842 2.43934 12.5607C2.15804 12.2794 2 11.8978 2 11.5V6.49799L2.001 6.43799L6.35 9.69999C6.82601 10.057 7.40498 10.25 8 10.25C8.59502 10.25 9.17399 10.057 9.65 9.69999L13.999 6.43799L14 6.49799ZM13.194 5.16799L8.74 2.64199C8.51436 2.51402 8.2594 2.44675 8 2.44675C7.7406 2.44675 7.48564 2.51402 7.26 2.64199L2.806 5.16699L7.25 8.49999C7.46637 8.66227 7.72954 8.74999 8 8.74999C8.27046 8.74999 8.53363 8.66227 8.75 8.49999L13.194 5.16699V5.16799ZM0.5 6.49699C0.500016 5.9663 0.640809 5.4451 0.908015 4.98658C1.17522 4.52806 1.55928 4.14863 2.021 3.88699L6.521 1.33699C6.97203 1.08142 7.48159 0.947083 8 0.947083C8.51841 0.947083 9.02797 1.08142 9.479 1.33699L13.979 3.88699C14.4407 4.14863 14.8248 4.52806 15.092 4.98658C15.3592 5.4451 15.5 5.9663 15.5 6.49699V11.5C15.5 12.2956 15.1839 13.0587 14.6213 13.6213C14.0587 14.1839 13.2956 14.5 12.5 14.5H3.5C2.70435 14.5 1.94129 14.1839 1.37868 13.6213C0.81607 13.0587 0.5 12.2956 0.5 11.5V6.49699Z" fill="#BDBDBD"/>
</svg>
