<svg width="16" height="16" viewBox="0 0 16 16" fill="none" xmlns="http://www.w3.org/2000/svg">
<path d="M6.69198 3.54399L7.12464 4.31932C7.51464 5.01932 7.35798 5.93665 6.74331 6.55199C6.74331 6.55199 5.99664 7.29799 7.34998 8.65065C8.70131 10.002 9.44798 9.25732 9.44798 9.25732C10.0633 8.64199 10.9813 8.48532 11.6806 8.87532L12.456 9.30865C13.5126 9.89799 13.6373 11.3793 12.7086 12.3087C12.1506 12.866 11.4666 13.3007 10.7113 13.3287C9.43931 13.3773 7.27864 13.0553 5.11131 10.8887C2.94464 8.72132 2.62264 6.56065 2.67131 5.28865C2.69998 4.53332 3.13398 3.84932 3.69131 3.29132C4.62064 2.36265 6.10198 2.48732 6.69131 3.54465L6.69198 3.54399Z" stroke="#B7B7B7" stroke-width="2" stroke-linecap="round"/>
</svg>
