<svg width="16" height="16" viewBox="0 0 16 16" fill="none" xmlns="http://www.w3.org/2000/svg">
<path d="M3.99996 14.6667C3.63329 14.6667 3.31951 14.5362 3.05863 14.2754C2.79774 14.0145 2.66707 13.7005 2.66663 13.3334V6.66669C2.66663 6.30002 2.79729 5.98624 3.05863 5.72535C3.31996 5.46447 3.63374 5.3338 3.99996 5.33335H4.66663V4.00002C4.66663 3.0778 4.99174 2.2918 5.64196 1.64202C6.29218 0.992243 7.07818 0.667131 7.99996 0.666687C8.92218 0.666687 9.7084 0.991798 10.3586 1.64202C11.0088 2.29224 11.3337 3.07824 11.3333 4.00002V5.33335H12C12.3666 5.33335 12.6806 5.46402 12.942 5.72535C13.2033 5.98669 13.3337 6.30047 13.3333 6.66669V13.3334C13.3333 13.7 13.2028 14.014 12.942 14.2754C12.6811 14.5367 12.3671 14.6671 12 14.6667H3.99996ZM7.99996 11.3334C8.36663 11.3334 8.68063 11.2029 8.94196 10.942C9.20329 10.6811 9.33374 10.3671 9.33329 10C9.33329 9.63335 9.20285 9.31958 8.94196 9.05869C8.68107 8.7978 8.36707 8.66713 7.99996 8.66669C7.63329 8.66669 7.31952 8.79735 7.05863 9.05869C6.79774 9.32002 6.66707 9.6338 6.66663 10C6.66663 10.3667 6.79729 10.6807 7.05863 10.942C7.31996 11.2034 7.63374 11.3338 7.99996 11.3334ZM5.99996 5.33335H9.99996V4.00002C9.99996 3.44446 9.80552 2.97224 9.41663 2.58335C9.02774 2.19446 8.55551 2.00002 7.99996 2.00002C7.4444 2.00002 6.97218 2.19446 6.58329 2.58335C6.1944 2.97224 5.99996 3.44446 5.99996 4.00002V5.33335Z" fill="#B7B7B7"/>
</svg>
