<svg width="16" height="16" viewBox="0 0 16 16" fill="none" xmlns="http://www.w3.org/2000/svg">
<path d="M7.99996 8.00002C7.26663 8.00002 6.63885 7.73891 6.11663 7.21669C5.5944 6.69446 5.33329 6.06669 5.33329 5.33335C5.33329 4.60002 5.5944 3.97224 6.11663 3.45002C6.63885 2.9278 7.26663 2.66669 7.99996 2.66669C8.73329 2.66669 9.36107 2.9278 9.88329 3.45002C10.4055 3.97224 10.6666 4.60002 10.6666 5.33335C10.6666 6.06669 10.4055 6.69446 9.88329 7.21669C9.36107 7.73891 8.73329 8.00002 7.99996 8.00002ZM2.66663 12V11.4667C2.66663 11.0889 2.76396 10.7418 2.95863 10.4254C3.15329 10.1089 3.41151 9.86713 3.73329 9.70002C4.42218 9.35558 5.12218 9.09735 5.83329 8.92535C6.5444 8.75335 7.26663 8.66713 7.99996 8.66669C8.73329 8.66669 9.45551 8.75291 10.1666 8.92535C10.8777 9.0978 11.5777 9.35602 12.2666 9.70002C12.5888 9.86669 12.8473 10.1085 13.042 10.4254C13.2366 10.7422 13.3337 11.0894 13.3333 11.4667V12C13.3333 12.3667 13.2028 12.6807 12.942 12.942C12.6811 13.2034 12.3671 13.3338 12 13.3334H3.99996C3.63329 13.3334 3.31951 13.2029 3.05863 12.942C2.79774 12.6811 2.66707 12.3671 2.66663 12Z" fill="#B7B7B7"/>
</svg>
